<?xml version="1.0" standalone="no"?>
<!DOCTYPE svg PUBLIC "-//W3C//DTD SVG 20010904//EN"
 "http://www.w3.org/TR/2001/REC-SVG-20010904/DTD/svg10.dtd">
<svg version="1.0" xmlns="http://www.w3.org/2000/svg"
 width="300.000000pt" height="270.000000pt" viewBox="0 0 300.000000 270.000000"
 preserveAspectRatio="xMidYMid meet">
<metadata>
Created by potrace 1.10, written by Peter Selinger 2001-2011
</metadata>
<g transform="translate(0.000000,270.000000) scale(0.100000,-0.100000)"
fill="#000000" stroke="none">
<path d="M1003 2543 c31 -2 83 -2 115 0 31 2 5 3 -58 3 -63 0 -89 -1 -57 -3z"/>
<path d="M616 2504 c-85 -20 -170 -70 -225 -130 -59 -64 -82 -107 -107 -199
-18 -66 -19 -115 -19 -845 0 -726 1 -779 18 -835 22 -70 88 -185 117 -203 11
-7 20 -20 20 -29 0 -13 -7 -10 -30 12 -82 78 -128 202 -140 370 l-7 110 -2
-91 c-1 -119 11 -183 55 -271 41 -86 136 -186 208 -222 26 -12 49 -21 52 -19
2 3 -8 11 -24 19 -64 32 -114 71 -104 81 7 7 23 1 49 -19 21 -16 53 -35 71
-42 17 -8 32 -17 32 -21 0 -22 124 -32 440 -36 184 -2 345 -6 358 -9 12 -3 22
-2 22 2 0 5 156 9 348 9 319 1 352 3 409 21 73 24 176 95 227 155 19 24 36 38
36 31 0 -6 -37 -49 -82 -94 -74 -74 -78 -80 -35 -50 76 52 165 182 182 266 3
17 -5 1 -19 -34 -13 -35 -30 -68 -37 -75 -9 -8 -10 -7 -4 9 59 146 59 145 65
425 3 146 7 216 8 156 1 -60 4 -107 7 -105 2 3 5 49 7 102 l2 97 36 -7 c150
-33 302 41 363 176 30 65 29 169 -1 236 -40 87 -118 152 -214 176 -27 6 -48
14 -48 18 1 3 28 35 61 71 62 67 102 132 113 187 9 41 -16 99 -73 171 -35 44
-47 53 -69 50 -37 -4 -60 -47 -44 -82 9 -21 19 -26 46 -26 74 0 100 -97 47
-181 -37 -59 -189 -219 -208 -219 -8 0 -11 -4 -8 -10 3 -6 -1 -7 -9 -4 -14 5
-16 40 -16 258 l0 253 29 -5 c50 -7 86 63 51 101 -12 13 -80 26 -80 16 0 -5
13 -9 28 -9 34 0 52 -16 52 -46 0 -49 -70 -57 -91 -11 -23 51 -139 83 -195 54
-88 -46 -232 -231 -340 -437 -56 -108 -78 -161 -86 -207 -14 -91 -6 -103 20
-31 13 35 29 74 35 88 l12 24 198 1 c121 0 202 -4 207 -10 11 -13 -13 -172
-27 -186 -10 -10 -146 -20 -164 -12 -4 2 -4 18 0 36 5 18 5 40 2 50 -5 14 -15
2 -42 -50 -105 -198 -107 -381 -6 -454 59 -43 119 -41 179 6 25 19 55 46 65
61 l20 27 31 -23 c18 -13 32 -29 31 -34 0 -16 -97 -93 -149 -119 -30 -15 -63
-22 -102 -22 -49 0 -63 5 -114 40 -84 58 -96 88 -97 238 -1 121 -1 123 42 230
23 59 47 107 52 107 6 0 19 -5 30 -10 15 -8 19 -7 19 4 0 8 2 21 5 28 4 10 -2
14 -24 12 -44 -3 -63 -18 -92 -71 l-26 -48 -56 -1 c-31 -1 -63 -7 -72 -14 -12
-10 -16 -9 -20 2 -4 10 -15 13 -31 10 -17 -3 -24 0 -24 11 0 9 5 19 10 22 5 3
10 18 10 33 l1 27 15 -28 c9 -16 18 -27 20 -24 3 3 7 37 9 76 4 74 36 159 113
301 93 170 239 342 327 386 51 25 58 25 107 14 29 -7 64 -19 76 -27 35 -22 37
-10 6 46 -34 64 -125 151 -192 185 -109 55 -116 56 -882 55 -573 -1 -716 -3
-764 -15z m274 0 c-58 -8 -150 -8 -150 -1 0 4 39 6 88 6 48 -1 76 -3 62 -5z
m408 -1 c-10 -2 -18 -9 -18 -14 0 -9 194 -7 210 2 3 1 -24 5 -60 9 -51 5 104
3 308 -4 12 -1 22 -4 22 -8 0 -5 36 -8 80 -8 52 0 80 4 80 11 0 6 -9 9 -19 6
-10 -2 -25 0 -32 5 -27 18 240 -3 305 -24 75 -25 98 -37 91 -47 -2 -5 3 -15
13 -22 15 -13 16 -12 3 4 -10 12 -10 17 -1 17 18 0 142 -128 135 -140 -4 -7
-13 -6 -27 1 -25 13 -113 5 -134 -12 -8 -6 -14 -8 -14 -3 0 4 -12 -3 -27 -17
-61 -55 -58 -55 -116 -15 -68 47 -210 97 -246 87 -14 -4 -51 -9 -81 -10 -30
-1 -68 -6 -85 -12 -48 -18 -135 -63 -135 -70 0 -4 -9 -11 -20 -14 -12 -4 -54
-40 -94 -80 -55 -56 -76 -71 -84 -63 -7 7 -12 17 -12 23 0 12 -77 88 -135 132
-121 92 -323 118 -445 58 -14 -7 -44 -21 -67 -30 -23 -10 -56 -32 -75 -51 -18
-18 -39 -34 -47 -34 -28 0 -80 -51 -129 -124 -65 -97 -90 -191 -91 -340 0
-117 16 -187 65 -275 29 -52 30 -65 5 -50 -37 24 -66 -12 -42 -50 13 -20 57
-6 65 21 5 22 6 22 33 -11 15 -18 40 -44 55 -58 l27 -25 -21 -28 c-11 -16 -18
-36 -15 -44 8 -20 41 -21 57 -1 20 24 39 18 89 -27 26 -24 60 -50 76 -58 15
-8 64 -51 109 -95 44 -45 92 -89 106 -98 103 -71 128 -83 95 -47 -18 19 -17
20 2 20 16 0 23 -10 32 -45 6 -25 15 -45 20 -45 9 0 139 -118 206 -187 17 -18
38 -33 47 -33 9 0 33 -18 55 -39 67 -67 152 -76 240 -25 77 44 146 123 272
309 45 66 85 120 89 119 24 -4 52 -18 52 -26 0 -15 -87 -145 -168 -251 -82
-107 -174 -197 -237 -230 -56 -30 -174 -30 -230 0 -49 26 -96 75 -122 127 -16
31 -21 35 -25 20 -13 -52 44 -134 121 -174 21 -10 67 -24 102 -31 81 -14 122
-4 208 52 l64 41 22 -28 c15 -19 27 -25 39 -21 10 4 15 3 11 -3 -15 -24 -12
-69 6 -98 15 -25 26 -32 51 -32 62 0 95 61 67 124 -13 28 -60 41 -90 26 -10
-6 -19 -9 -20 -8 0 2 -2 13 -3 25 -2 13 -11 32 -21 43 -18 20 -18 21 17 58 42
43 136 171 193 260 l39 62 57 -1 c58 -2 149 19 149 33 0 4 5 8 10 8 17 0 106
72 126 102 11 16 22 28 27 28 4 0 7 -108 6 -241 -1 -262 -12 -334 -65 -425
-33 -56 -109 -131 -159 -156 -107 -55 -102 -55 -870 -53 -648 2 -715 3 -772
20 -35 10 -68 24 -74 31 -6 8 -17 14 -25 14 -22 0 -137 122 -167 177 -15 29
-31 69 -34 90 -3 21 -6 277 -6 568 0 292 -4 519 -8 505 -5 -19 -7 -13 -7 25 0
28 2 42 6 33 4 -10 7 16 7 56 0 41 -3 72 -7 69 -5 -2 -8 0 -8 6 0 5 5 13 10
16 7 4 6 14 -1 28 -17 31 -3 300 17 343 9 18 13 38 9 43 -3 6 -1 11 5 11 6 0
9 4 5 9 -3 5 0 13 6 17 12 7 44 74 41 86 -1 5 2 7 7 5 5 -1 10 3 10 8 4 25
131 133 131 111 0 -3 -14 -13 -31 -21 -17 -9 -28 -19 -25 -22 3 -4 28 6 54 20
27 15 53 23 57 19 5 -4 5 -1 1 6 -4 7 -16 10 -27 7 -10 -4 -19 -4 -19 -1 0 3
30 14 66 26 71 21 129 26 139 11 5 -10 266 -7 370 3 37 4 42 3 20 -3 l-30 -9
32 -1 c17 0 35 4 38 9 3 6 12 10 18 10 7 0 6 -4 -3 -10 -11 -7 -5 -10 23 -10
21 0 36 4 32 9 -6 10 13 16 55 18 14 0 18 -1 8 -4z m667 -220 c56 -18 175 -89
175 -105 0 -5 -8 -7 -19 -3 -10 3 -24 -1 -31 -10 -7 -8 -18 -15 -24 -15 -15
-1 -81 -63 -89 -84 -5 -13 0 -16 23 -16 34 0 36 -6 14 -38 -21 -31 -29 -28
-48 18 -9 22 -20 40 -25 40 -5 0 -28 44 -51 98 -23 53 -46 101 -51 107 -5 5
-9 15 -9 23 0 17 55 11 135 -15z m-930 3 c70 -19 149 -56 139 -65 -5 -4 -36
-30 -69 -57 -33 -27 -62 -51 -65 -54 -3 -3 -17 -16 -32 -29 l-27 -24 -91 96
c-50 53 -100 99 -110 102 -56 18 17 42 130 44 41 0 98 -5 125 -13z m788 -3 c3
-10 24 -62 46 -116 46 -108 47 -115 26 -97 -10 8 -15 9 -15 1 0 -7 -8 -8 -24
-1 -13 5 -33 6 -45 3 -41 -11 -20 -20 51 -22 81 -2 88 -5 88 -31 0 -18 -57
-70 -76 -70 -6 0 -32 23 -59 51 -28 28 -96 86 -152 130 -57 44 -103 84 -103
89 0 14 77 51 135 65 77 19 122 18 128 -2z m-943 -140 c46 -48 79 -92 78 -101
-2 -11 5 -18 19 -20 17 -3 26 4 35 26 15 33 158 162 179 162 8 -1 45 -30 83
-65 51 -48 66 -68 58 -78 -6 -6 -10 -15 -9 -18 2 -8 -47 -48 -93 -77 -19 -12
-32 -22 -28 -22 10 0 77 40 117 69 38 29 30 28 249 30 139 1 155 3 138 16 -13
10 -35 13 -65 10 -30 -3 -54 1 -68 11 -18 11 -23 11 -23 2 0 -9 -17 -13 -50
-14 -42 0 -48 2 -38 14 8 9 -2 6 -27 -7 -21 -11 -41 -18 -44 -16 -6 6 83 98
121 126 28 20 28 20 50 -1 13 -12 43 -35 68 -51 60 -40 154 -130 187 -180 30
-45 27 -51 -40 -88 -30 -17 -55 -21 -129 -21 -50 0 -88 -3 -85 -7 4 -3 43 -6
87 -5 44 1 80 0 80 -2 0 -2 -29 -25 -64 -50 -40 -29 -75 -46 -93 -46 l-28 0 1
66 c2 82 -9 116 -48 149 -26 22 -38 25 -114 25 -119 0 -164 -29 -164 -105 0
-24 -2 -25 -69 -25 l-70 0 -41 75 c-59 107 -71 105 -15 -3 46 -89 65 -109 88
-95 19 12 97 11 97 -1 0 -6 3 -28 6 -48 l7 -38 -49 0 c-45 0 -55 5 -110 53
-34 28 -90 75 -124 102 -35 28 -65 55 -67 60 -1 6 13 21 32 34 20 13 33 26 30
29 -2 3 -20 -7 -39 -22 -19 -14 -39 -26 -44 -26 -5 0 -50 39 -100 88 -51 48
-96 89 -100 91 -26 14 -42 27 -42 34 0 4 27 25 61 47 l60 39 34 -20 c19 -12
71 -59 115 -106z m1546 12 l44 -26 0 -232 c-1 -128 0 -249 0 -269 0 -28 4 -38
16 -38 9 0 -4 -15 -28 -33 -24 -18 -54 -49 -67 -70 -13 -20 -26 -35 -29 -32
-8 8 29 59 72 97 23 21 36 38 30 38 -21 0 -87 -76 -112 -130 -33 -70 -37 -205
-9 -258 22 -40 15 -54 -50 -111 -83 -74 -130 -84 -183 -38 -59 52 -74 163 -37
277 l24 75 114 6 c63 4 114 7 114 8 1 0 1 9 2 19 1 9 9 69 19 132 9 63 17 131
18 150 1 82 -13 189 -34 250 -13 36 -23 70 -23 77 0 7 -3 10 -7 8 -4 -2 -21
11 -39 29 l-32 33 36 32 c46 40 99 42 161 6z m-1672 -157 c240 -201 264 -220
292 -238 29 -18 30 -27 6 -34 -10 -4 -31 -20 -47 -36 -23 -24 -30 -41 -33 -89
-2 -32 1 -75 8 -95 14 -42 62 -86 96 -86 13 0 24 -3 23 -7 0 -5 -57 -53 -126
-108 -69 -55 -135 -108 -147 -119 -11 -10 -31 -25 -43 -33 -25 -17 -35 -11
-123 70 -25 23 -66 61 -91 84 l-46 41 28 22 c16 11 33 19 37 16 5 -3 64 -7
133 -10 l124 -5 29 -38 c29 -38 29 -38 21 -8 -4 17 -6 65 -6 108 l1 77 -57 -2
c-43 -1 -48 -2 -20 -5 20 -2 37 -8 37 -12 0 -10 -66 -8 -76 2 -11 11 -34 8
-34 -4 0 -5 4 -8 9 -4 6 3 15 0 22 -7 7 -8 30 -12 60 -10 43 4 47 2 42 -16 -6
-24 -30 -32 -95 -32 -38 0 -50 4 -59 21 -9 17 -8 23 2 30 11 7 11 9 1 9 -8 0
-6 8 7 22 18 18 30 21 90 19 69 -2 69 -2 90 33 12 19 27 36 33 38 7 3 -6 15
-29 27 l-41 24 74 50 c41 27 74 53 74 57 0 7 -122 20 -192 20 -33 0 -40 4 -49
28 -6 15 -26 60 -45 100 -19 40 -34 79 -34 87 0 25 -17 17 -40 -20 -25 -41
-22 -60 9 -60 14 0 27 -10 35 -25 7 -14 26 -53 43 -87 l30 -62 -45 37 c-25 20
-51 50 -58 67 -18 41 -61 92 -70 83 -4 -5 0 -16 8 -25 9 -10 28 -43 42 -73 19
-38 39 -63 66 -79 21 -13 53 -37 72 -53 18 -16 55 -43 83 -61 35 -22 44 -33
32 -35 -9 -2 -15 -8 -12 -13 8 -12 1 -12 -69 8 -34 9 -75 27 -92 40 -17 13
-37 23 -44 23 -28 0 77 -56 138 -75 34 -10 61 -23 59 -29 -4 -12 -61 -14 -127
-5 -44 7 -72 -3 -55 -18 4 -5 10 -2 12 5 3 6 9 9 14 6 6 -3 6 -11 -2 -20 -6
-7 -15 -11 -20 -8 -5 3 -9 -2 -9 -10 0 -9 -7 -16 -16 -16 -8 0 -12 5 -9 10 3
6 4 10 1 10 -2 0 -13 3 -23 6 -15 5 -15 4 -3 -5 12 -9 10 -11 -12 -11 -20 0
-28 5 -29 18 -1 11 -4 8 -8 -8 -9 -32 -4 -55 19 -75 16 -14 37 -16 134 -13 88
2 116 0 116 -9 0 -10 -33 -13 -130 -13 -125 0 -130 1 -145 24 -9 13 -18 39
-20 57 -3 19 -8 54 -13 79 -6 35 -4 57 12 102 18 50 19 62 8 110 -25 106 -25
108 -6 123 22 17 11 20 -17 4 -11 -5 -17 -14 -14 -20 4 -5 -3 -9 -14 -9 -29 0
-26 -12 9 -50 17 -18 30 -36 30 -41 0 -5 -33 -9 -72 -9 -40 0 -83 -3 -95 -6
-20 -6 -21 -3 -16 38 16 132 61 235 142 321 19 20 37 37 39 37 2 0 86 -69 186
-152z m1301 111 c8 -13 6 -15 -23 -24 -22 -6 -22 -5 -10 14 14 23 24 26 33 10z
m663 -17 c90 -96 113 -180 70 -261 -29 -52 -145 -185 -176 -200 -47 -23 -42
-9 21 59 143 154 170 225 117 303 -19 28 -32 37 -60 39 -28 2 -36 8 -38 27 -3
15 3 30 14 38 24 17 31 16 52 -5z m-461 -38 c55 -92 78 -171 89 -298 l7 -84
-217 -1 c-119 -1 -216 2 -216 6 0 5 9 14 19 20 11 7 29 33 40 58 34 78 34 78
191 76 82 -1 141 2 144 8 4 5 -4 9 -16 9 -13 -1 -83 -1 -156 0 -130 2 -132 2
-122 22 6 11 14 18 18 16 5 -3 8 4 9 14 1 10 8 26 17 37 8 10 30 38 48 63 30
40 39 46 83 50 43 4 46 7 32 19 -20 16 -23 35 -5 29 7 -3 22 -22 35 -44z
m-313 -146 l-28 -58 -70 0 c-71 0 -88 -8 -25 -11 43 -3 61 -16 50 -37 -4 -10
-17 -35 -27 -56 -10 -21 -19 -46 -19 -55 0 -29 -34 -23 -70 13 -31 31 -42 36
-83 36 -43 1 -45 2 -27 15 85 59 179 130 243 184 89 74 103 67 56 -31z m-457
4 c8 -11 12 -53 13 -122 l0 -105 104 3 c138 4 143 -1 136 -123 -4 -61 -9 -88
-20 -95 -8 -5 -55 -10 -104 -10 l-89 0 -68 56 c-38 31 -69 60 -69 64 0 5 24
29 53 54 68 59 54 60 -18 0 l-56 -45 -39 35 c-21 19 -54 43 -72 52 -25 14 -29
19 -15 22 15 3 17 16 17 100 0 53 5 104 10 112 6 10 33 17 82 21 88 7 118 3
135 -19z m-937 -192 c11 -7 12 -15 5 -36 -14 -39 -26 -39 -70 -2 l-38 33 34 6
c51 9 53 9 69 -1z m344 -15 c-31 -28 -52 -32 -60 -10 -4 8 -12 15 -20 15 -8 0
-14 5 -14 10 0 6 27 10 61 10 l60 0 -27 -25z m-353 -136 c-2 -8 -8 -57 -13
-108 -5 -52 -10 -97 -12 -99 -7 -6 -65 84 -90 143 -22 49 -46 149 -46 193 0 8
37 -15 83 -51 47 -37 80 -70 78 -78z m722 89 c30 -24 96 -77 146 -118 l91 -75
-1 -104 c-2 -136 -7 -141 -123 -141 -111 0 -116 6 -116 145 l0 100 -95 -3
c-136 -5 -145 2 -145 112 0 110 14 124 127 125 57 1 65 -2 116 -41z m1486 -90
c97 -47 161 -143 161 -243 0 -182 -198 -321 -370 -260 -64 23 -74 34 -54 56
21 24 32 24 85 -1 24 -11 55 -19 69 -19 28 1 114 49 110 62 -1 5 9 21 22 35
40 44 54 75 57 123 3 50 -22 124 -39 114 -6 -3 -7 0 -4 9 3 9 1 17 -5 17 -26
3 -30 4 -38 13 -5 5 -3 6 5 2 28 -16 9 6 -20 24 -21 12 -51 20 -80 20 -51 0
-102 -15 -94 -28 3 -5 -4 -8 -16 -8 -12 1 -33 -14 -51 -36 -25 -31 -31 -50
-36 -108 -4 -38 -3 -70 1 -70 4 0 8 -7 8 -15 0 -9 20 -35 44 -59 32 -32 56
-46 90 -54 49 -10 107 -1 134 20 7 6 15 8 19 5 3 -4 -15 -16 -42 -28 -57 -25
-116 -20 -167 14 -55 38 -56 38 -52 20 3 -11 -10 -35 -30 -58 l-35 -40 -22 22
-22 22 39 45 c21 24 45 42 52 40 10 -3 10 1 1 17 -11 21 -11 20 -30 -10 -10
-17 -23 -31 -29 -31 -21 0 -50 84 -50 145 0 103 70 210 164 251 51 22 172 18
225 -8z m-2074 -96 c6 -4 16 -17 23 -29 10 -20 10 -23 -4 -23 -8 0 -12 5 -9
10 3 6 -4 10 -15 10 -16 0 -20 5 -16 15 3 8 1 15 -4 15 -6 0 -10 -7 -10 -15 0
-8 -4 -15 -9 -15 -11 0 -22 26 -14 34 9 8 46 7 58 -2z m2041 -27 c82 -53 84
-161 4 -228 -64 -54 -149 -40 -198 33 -32 47 -27 127 9 166 50 54 128 67 185
29z m-1506 -90 c0 -106 38 -166 113 -179 43 -8 43 -6 18 -131 -18 -94 -24 -94
-37 0 -8 65 -20 88 -29 60 -22 -67 -21 -66 -83 -63 -63 3 -64 6 -37 73 l15 35
75 0 c40 0 76 4 79 8 3 5 -28 8 -69 8 -80 -1 -83 1 -65 50 18 45 4 38 -19 -11
-12 -25 -26 -43 -31 -40 -17 10 -186 8 -207 -3 -19 -11 -43 0 -43 19 0 4 33
33 72 65 40 33 104 85 142 117 93 77 106 76 106 -8z m598 53 c-2 -6 -25 -30
-51 -51 l-46 -40 -68 44 -67 44 89 6 c50 3 103 6 118 7 18 1 27 -2 25 -10z
m160 -3 c2 -2 -9 -22 -24 -44 -23 -36 -27 -51 -26 -117 l1 -75 -48 2 c-26 1
-53 -1 -60 -5 -7 -4 -14 -6 -16 -4 -6 5 61 100 81 115 9 6 13 17 9 23 -4 6
-32 -21 -67 -65 -54 -68 -63 -75 -87 -70 -15 3 -54 6 -86 7 l-60 0 120 115
c66 63 129 119 140 124 18 8 114 3 123 -6z m-359 -37 c32 -24 66 -47 75 -53
15 -9 8 -19 -48 -76 -55 -55 -71 -65 -103 -67 -21 -2 -60 -7 -88 -11 -37 -7
-5 -9 129 -10 l178 -1 -29 -27 c-16 -16 -37 -39 -46 -53 -15 -22 -26 -25 -91
-28 -76 -4 -116 7 -116 33 0 8 -4 15 -9 15 -9 0 -25 -59 -37 -140 -6 -40 -8
-43 -16 -21 -4 13 -11 64 -15 113 -3 49 -10 91 -15 94 -23 15 -4 32 44 38 39
6 59 15 85 41 32 32 33 35 33 114 0 45 2 81 5 81 3 0 31 -19 64 -42z m-1191
-6 c2 -14 -2 -22 -12 -22 -19 0 -28 14 -20 35 9 21 28 14 32 -13z m156 -138
c3 -9 4 -20 0 -25 -8 -13 -32 -11 -37 4 -11 32 25 53 37 21z m317 -70 c7 -9
33 -29 58 -46 25 -17 63 -47 84 -66 31 -31 37 -43 38 -82 1 -25 4 -35 6 -22 3
15 11 22 29 22 20 0 24 5 24 28 0 24 4 27 32 28 104 3 108 4 109 22 1 17 8 -7
30 -115 8 -35 17 -63 21 -63 5 0 8 6 8 14 0 11 7 12 28 7 23 -6 28 -14 32 -52
10 -80 33 -94 38 -22 2 25 7 53 11 62 5 9 12 47 16 85 l7 69 79 -7 c62 -5 86
-3 109 9 17 9 30 20 30 25 0 6 19 31 41 55 l42 45 78 0 c70 0 78 -2 84 -21 6
-18 -5 -32 -56 -78 -100 -87 -209 -194 -205 -198 9 -9 51 21 110 78 103 98
140 129 147 121 13 -13 49 -82 49 -93 0 -11 -82 -135 -148 -224 -103 -138
-201 -215 -275 -215 -39 0 -88 23 -117 54 l-25 27 50 47 c28 26 81 75 119 110
37 35 65 66 62 70 -4 3 -21 -8 -39 -25 -209 -197 -206 -195 -265 -170 -31 13
-122 92 -122 105 1 4 25 27 55 51 30 24 55 48 55 54 0 6 -15 -3 -32 -19 -18
-17 -48 -41 -66 -53 -36 -25 -32 -26 -94 28 -20 18 -28 34 -28 58 0 18 5 33
10 33 6 0 10 -4 10 -9 0 -4 26 -9 58 -10 31 0 69 -3 83 -6 19 -4 28 -1 33 11
4 9 5 18 4 20 -2 1 -66 4 -143 6 l-139 3 -71 65 c-38 36 -89 81 -113 101 l-43
37 38 31 c43 36 46 36 64 15z m243 -61 c-13 -32 -24 -64 -24 -70 0 -21 -25
-15 -51 13 -13 14 -50 44 -81 66 -32 23 -58 42 -58 44 0 2 53 4 119 4 l119 0
-24 -57z m245 -154 c1 -44 0 -46 -25 -41 -15 3 -23 10 -20 17 2 7 10 38 18 70
12 52 14 55 19 29 4 -16 7 -50 8 -75z m468 -465 c8 -20 -13 -42 -27 -28 -12
12 -3 44 11 44 5 0 12 -7 16 -16z m113 -66 c11 -12 20 -25 20 -29 0 -26 -24
-61 -46 -70 -54 -20 -97 59 -57 103 22 24 58 23 83 -4z m-932 -255 c-15 -2
-42 -2 -60 0 -18 2 -6 4 27 4 33 0 48 -2 33 -4z m315 0 c-34 -2 -93 -2 -130 0
-37 2 -9 3 62 3 72 0 102 -1 68 -3z m515 0 c-21 -2 -57 -2 -80 0 -24 2 -7 4
37 4 44 0 63 -2 43 -4z"/>
<path d="M623 2479 c-18 -5 -33 -12 -33 -15 0 -6 89 6 115 16 29 12 -40 11
-82 -1z"/>
<path d="M1046 2421 c-33 -36 5 -88 52 -70 31 12 33 53 4 76 -24 17 -36 16
-56 -6z m61 -17 c8 -21 -19 -46 -40 -38 -17 6 -23 35 -10 47 12 13 44 7 50 -9z"/>
<path d="M1329 2391 c-34 -35 -37 -72 -10 -117 17 -28 23 -31 62 -29 85 5 121
97 58 149 -40 34 -74 33 -110 -3z m96 -16 c30 -29 32 -64 5 -93 -26 -27 -64
-28 -90 -2 -26 26 -25 68 2 97 28 30 53 29 83 -2z"/>
<path d="M1362 2348 c-18 -18 -15 -36 10 -49 18 -9 24 -8 34 6 25 34 -15 72
-44 43z"/>
<path d="M688 2403 c-9 -3 -20 -13 -23 -24 -14 -42 44 -68 65 -30 18 34 -4 62
-42 54z m29 -28 c1 -5 -2 -17 -7 -25 -8 -13 -11 -13 -26 2 -9 9 -13 21 -9 28
8 13 37 10 42 -5z"/>
<path d="M1522 2390 c-18 -29 -15 -47 10 -64 44 -31 91 32 48 66 -29 23 -42
23 -58 -2z m53 -30 c0 -29 -32 -41 -41 -16 -9 24 4 48 23 44 12 -2 18 -12 18
-28z"/>
<path d="M2007 2403 c-4 -3 -7 -17 -7 -29 0 -25 27 -39 54 -28 20 8 18 56 -2
60 -7 1 -8 0 -2 -3 16 -8 12 -43 -6 -50 -19 -7 -36 15 -28 40 6 18 2 22 -9 10z"/>
<path d="M1192 2375 c-17 -22 -19 -31 -10 -51 12 -26 40 -32 55 -11 22 27 21
45 -2 67 l-23 21 -20 -26z m46 -19 c5 -26 -17 -49 -34 -35 -17 14 -18 31 -2
47 16 16 32 10 36 -12z"/>
<path d="M2127 2368 c-26 -33 -4 -88 35 -88 41 0 64 50 38 85 -21 28 -52 29
-73 3z m67 -25 c8 -20 -11 -43 -35 -43 -11 0 -19 2 -19 4 0 2 -3 11 -6 19 -7
18 22 48 41 41 7 -3 16 -13 19 -21z"/>
<path d="M506 2359 c-35 -28 -35 -70 0 -98 15 -12 32 -21 39 -21 27 0 65 41
65 70 0 29 -38 70 -65 70 -7 0 -24 -9 -39 -21z m62 -21 c16 -16 15 -43 -2 -57
-21 -18 -56 3 -56 34 0 32 35 46 58 23z"/>
<path d="M417 2204 c-11 -12 -8 -51 6 -62 7 -6 21 -6 35 -1 34 13 28 63 -8 67
-14 2 -29 0 -33 -4z m46 -18 c8 -20 -20 -43 -35 -28 -14 14 -3 42 16 42 7 0
16 -6 19 -14z"/>
<path d="M433 1288 c-11 -13 -19 -31 -18 -41 2 -10 -5 -23 -16 -30 -23 -14
-24 -35 -4 -65 15 -20 14 -24 -7 -53 -19 -25 -23 -43 -22 -94 1 -58 4 -69 41
-117 31 -42 51 -57 91 -71 50 -18 52 -18 95 1 24 11 48 25 51 31 4 6 13 11 19
11 9 0 9 -2 0 -8 -6 -4 -11 -16 -10 -27 1 -14 -9 -25 -33 -37 -19 -10 -47 -30
-61 -46 l-26 -29 -31 28 c-18 16 -32 35 -32 44 0 8 -8 24 -17 34 -16 20 -17
20 -45 0 -15 -11 -28 -24 -28 -28 0 -5 14 -25 30 -46 28 -35 30 -44 30 -120 0
-67 3 -85 18 -98 25 -23 36 -21 52 8 17 32 24 31 49 -3 18 -26 115 -82 141
-82 6 0 -1 -10 -16 -23 -32 -28 -40 -78 -18 -112 9 -14 20 -22 25 -19 5 3 9 0
9 -5 0 -22 61 -11 87 15 21 21 25 32 20 64 -5 43 -23 66 -53 72 -18 3 -18 4 3
23 11 11 33 28 47 38 49 34 67 82 66 172 -1 47 -65 106 -124 112 -48 6 -54 11
-34 31 9 9 9 15 1 23 -8 8 -11 6 -10 -7 1 -10 -6 -20 -15 -22 -13 -2 -18 3
-18 17 0 12 6 21 13 21 8 0 7 3 -3 10 -12 8 -12 11 1 27 20 22 31 50 35 83 2
14 6 36 9 50 8 36 -32 100 -79 126 -30 17 -54 21 -110 21 -62 -1 -71 2 -75 18
-2 10 3 23 10 29 36 28 41 44 24 70 -21 32 -35 33 -62 4z m47 -13 c15 -17 5
-35 -20 -35 -22 0 -33 23 -17 39 15 15 22 14 37 -4z m-45 -91 c0 -10 -8 -20
-17 -22 -18 -3 -26 27 -11 42 12 11 28 0 28 -20z m140 -58 c54 10 103 -30 119
-98 6 -26 4 -28 -23 -28 -56 0 -81 16 -81 52 -1 30 -2 31 -14 15 -8 -10 -17
-38 -21 -63 -3 -25 -9 -43 -12 -40 -4 3 -11 36 -17 73 -13 76 -27 85 -38 22
-10 -55 -16 -60 -61 -52 -32 5 -37 9 -31 27 17 59 90 114 126 95 10 -5 34 -7
53 -3z m-57 -180 c6 -37 14 -71 17 -74 10 -11 23 20 30 68 l6 47 57 -5 c31 -2
58 -6 60 -7 2 -2 -3 -16 -11 -32 -20 -37 -64 -77 -104 -92 -48 -19 -113 13
-153 76 l-31 48 52 3 c41 3 52 7 56 23 8 28 10 23 21 -55z m-68 -141 c17 -20
5 -45 -20 -45 -11 0 -23 7 -26 15 -6 15 11 45 26 45 4 0 13 -7 20 -15z m236
-55 c7 -7 19 -8 36 -1 45 17 117 -36 118 -87 0 -22 -3 -23 -57 -21 -48 2 -59
0 -61 -14 -7 -35 -21 -15 -27 38 -8 63 -25 68 -38 12 -9 -36 -10 -37 -58 -37
-27 0 -49 2 -49 5 0 4 7 20 16 38 30 60 92 95 120 67z m-191 -113 c0 -71 -3
-97 -12 -97 -10 0 -13 27 -13 101 0 76 3 100 13 96 8 -2 12 -32 12 -100z m210
-110 c5 -1 14 18 20 41 10 43 11 44 58 47 26 1 49 0 52 -4 8 -14 -35 -71 -74
-97 -55 -36 -100 -28 -158 31 -58 57 -57 74 3 67 39 -4 48 -2 58 14 9 16 12
10 21 -39 5 -32 14 -59 20 -60z m67 -124 c24 -21 23 -58 -2 -83 -27 -27 -55
-25 -79 6 -27 34 -26 48 1 74 26 24 55 26 80 3z"/>
<path d="M703 374 c-8 -20 21 -49 41 -41 9 4 16 18 16 32 0 20 -5 25 -25 25
-14 0 -28 -7 -32 -16z"/>
<path d="M831 854 c-16 -21 -18 -30 -9 -49 14 -32 36 -39 65 -20 35 23 39 43
13 71 -30 31 -44 30 -69 -2z m57 -27 c4 -20 -25 -34 -40 -19 -15 15 -1 44 19
40 10 -2 19 -11 21 -21z"/>
<path d="M937 813 l-28 -15 4 -212 c4 -181 7 -217 22 -239 26 -40 61 -45 91
-15 26 25 27 31 37 235 1 28 6 55 10 59 4 4 18 -3 32 -16 24 -22 24 -25 8 -42
-25 -28 -7 -72 31 -76 31 -4 66 21 66 48 0 19 -30 50 -48 50 -17 0 -15 20 4
41 33 36 -25 97 -66 71 -28 -17 -30 -16 -30 22 0 18 -10 48 -23 67 -26 39 -64
47 -110 22z m90 -32 c9 -11 12 -74 13 -215 0 -172 -2 -202 -17 -218 -20 -22
-46 -23 -67 -2 -14 13 -16 48 -16 224 0 201 1 209 21 224 23 16 47 11 66 -13z
m121 -124 c4 -20 -25 -34 -40 -19 -15 15 -1 44 19 40 10 -2 19 -11 21 -21z
m26 -93 c21 -8 21 -40 0 -48 -46 -18 -83 15 -48 41 20 15 26 15 48 7z"/>
<path d="M2276 724 c-36 -35 -9 -92 39 -80 33 8 48 38 35 70 -11 30 -49 35
-74 10z m60 -20 c8 -30 -14 -58 -38 -49 -25 10 -30 36 -12 56 24 26 42 24 50
-7z"/>
<path d="M2007 682 c-22 -24 -21 -45 1 -65 26 -24 54 -21 74 7 17 23 17 25 -3
50 -24 31 -49 33 -72 8z m58 -22 c9 -15 -14 -40 -31 -33 -22 8 -18 43 5 43 11
0 23 -5 26 -10z"/>
<path d="M2196 599 c-11 -16 -12 -28 -5 -47 10 -27 -1 -42 -32 -42 -8 0 -29
-15 -47 -33 -45 -46 -43 -84 6 -136 36 -38 40 -39 76 -31 46 10 83 43 91 80 7
33 -17 98 -40 106 -21 8 -19 27 5 49 28 25 25 42 -9 60 -28 14 -31 14 -45 -6z
m44 -23 c0 -21 -21 -31 -30 -15 -5 7 -6 17 -4 21 9 14 34 9 34 -6z m-3 -108
c32 -30 31 -81 -2 -113 -49 -49 -125 -16 -125 55 0 69 77 105 127 58z"/>
<path d="M2154 423 c-9 -33 19 -58 47 -42 33 17 20 69 -17 69 -17 0 -25 -7
-30 -27z"/>
<path d="M1923 593 c-18 -7 -16 -38 3 -57 21 -22 31 -20 49 8 27 40 -3 69 -52
49z m45 -32 c-2 -9 -10 -17 -19 -19 -20 -4 -34 28 -18 39 18 11 40 -1 37 -20z"/>
<path d="M1991 519 c-26 -24 -27 -40 -2 -70 17 -21 21 -22 44 -10 32 17 40 36
27 61 -18 34 -45 42 -69 19z m44 -35 c0 -10 -8 -20 -17 -22 -18 -3 -26 27 -11
42 12 11 28 0 28 -20z"/>
<path d="M817 494 c-21 -28 -15 -59 14 -75 27 -14 54 -4 67 26 9 19 8 28 -6
44 -28 31 -55 34 -75 5z m53 -19 c13 -16 6 -35 -15 -35 -18 0 -28 17 -21 35 7
19 20 19 36 0z"/>
<path d="M488 480 c-35 -29 -36 -33 -30 -101 2 -17 58 -49 85 -49 8 0 26 11
41 25 32 30 35 88 6 125 -11 14 -20 22 -20 18 0 -4 -11 -3 -24 1 -19 8 -30 4
-58 -19z m90 -25 c48 -61 -28 -136 -83 -81 -30 31 -31 45 -4 80 26 33 62 34
87 1z"/>
<path d="M511 432 c-7 -13 -6 -23 1 -30 26 -26 64 -2 47 30 -5 10 -16 18 -24
18 -8 0 -19 -8 -24 -18z"/>
<path d="M1208 465 c-2 -2 -16 -5 -32 -8 -21 -2 -35 -13 -48 -38 -25 -47 -23
-78 9 -111 21 -22 36 -28 69 -28 36 0 46 5 64 30 27 38 28 80 4 113 -18 24
-58 50 -66 42z m39 -47 c29 -27 29 -65 1 -95 -29 -31 -71 -30 -97 3 -27 35
-26 59 4 89 30 31 62 32 92 3z"/>
<path d="M1182 391 c-23 -14 -10 -46 18 -46 20 0 25 5 25 25 0 26 -20 36 -43
21z"/>
<path d="M1340 359 c-25 -47 15 -96 51 -63 25 22 24 61 0 74 -28 15 -39 13
-51 -11z m48 -26 c4 -24 -26 -40 -34 -18 -8 21 3 47 19 43 6 -3 13 -14 15 -25z"/>
<path d="M1697 362 c-22 -24 -21 -45 2 -66 25 -23 52 -17 68 14 11 21 9 28 -9
47 -26 28 -40 29 -61 5z m53 -38 c0 -21 -21 -27 -38 -11 -13 13 -13 19 -2 32
10 12 16 13 26 4 8 -6 14 -17 14 -25z"/>
<path d="M842 344 c-27 -18 -28 -36 -4 -57 24 -22 45 -21 66 2 19 21 13 47
-15 61 -23 13 -21 13 -47 -6z m48 -29 c0 -19 -20 -29 -32 -17 -15 15 -2 43 17
36 8 -3 15 -12 15 -19z"/>
<path d="M795 2065 c-18 -13 -12 -14 65 -14 72 0 82 2 68 13 -25 18 -110 19
-133 1z"/>
<path d="M1042 2072 c-6 -2 -12 -8 -12 -13 0 -5 63 -9 142 -9 84 0 138 4 133
9 -10 9 -240 21 -263 13z"/>
<path d="M760 1641 c36 -22 79 -42 95 -46 17 -4 -6 13 -54 39 -102 56 -131 61
-41 7z"/>
<path d="M610 1612 c-22 -22 -40 -46 -40 -55 0 -25 19 -20 30 7 5 13 24 38 42
55 18 17 28 31 21 31 -7 0 -30 -17 -53 -38z"/>
<path d="M720 1583 c-8 -3 -18 -10 -21 -16 -4 -5 -14 -5 -27 2 -37 20 -66 -6
-55 -49 4 -15 8 -18 14 -9 4 7 14 14 22 15 8 1 33 16 57 33 41 29 44 37 10 24z"/>
<path d="M745 1560 c3 -5 29 -10 57 -10 64 0 60 5 -10 14 -37 5 -52 4 -47 -4z"/>
<path d="M735 1460 c-12 -20 7 -31 44 -25 20 3 44 6 53 6 10 0 20 4 23 8 5 9
-17 8 -79 -4 -34 -7 -38 -6 -33 9 7 18 2 22 -8 6z"/>
<path d="M1543 1570 c27 -5 59 -5 70 0 16 6 1 9 -48 8 -70 0 -70 0 -22 -8z"/>
<path d="M1305 1524 c-28 -25 -41 -41 -30 -35 29 14 91 68 85 74 -3 3 -28 -15
-55 -39z"/>
<path d="M2622 1338 c2 -13 10 -23 18 -23 8 0 16 10 18 23 3 17 -2 22 -18 22
-16 0 -21 -5 -18 -22z"/>
<path d="M880 1050 c105 -95 120 -108 120 -102 0 8 -118 115 -140 126 -8 4 1
-6 20 -24z"/>
<path d="M1792 1014 l-47 -46 53 42 c28 24 52 45 52 47 0 10 -16 -2 -58 -43z"/>
<path d="M1553 903 c-51 -2 -93 -7 -93 -11 0 -4 6 -15 14 -24 11 -16 15 -16
35 -2 16 12 25 13 35 5 7 -6 16 -8 20 -4 3 4 14 8 24 9 9 1 25 5 34 8 13 6 17
1 21 -21 l4 -28 2 28 c0 16 7 27 15 27 8 0 18 5 21 10 4 6 -4 9 -17 8 -13 -1
-65 -4 -115 -5z"/>
<path d="M1784 889 c-17 -19 -17 -23 -3 -47 18 -33 44 -39 70 -16 24 22 24 39
-1 64 -25 25 -42 25 -66 -1z m54 -27 c2 -14 -2 -22 -12 -22 -19 0 -29 17 -22
36 8 22 30 12 34 -14z"/>
<path d="M1684 785 c-13 -20 -14 -28 -4 -40 18 -21 57 -19 70 4 13 25 13 27
-6 45 -22 23 -41 20 -60 -9z m54 -13 c2 -13 -3 -25 -13 -28 -23 -9 -38 10 -30
36 9 27 39 22 43 -8z"/>
<path d="M1528 683 c-9 -10 -20 -30 -23 -45 -6 -22 -1 -33 23 -58 37 -36 55
-38 87 -5 29 29 33 75 8 97 -30 26 -77 31 -95 11z m80 -15 c27 -27 2 -98 -34
-98 -17 0 -54 40 -54 59 0 39 61 66 88 39z"/>
<path d="M1557 653 c-15 -14 -7 -43 12 -43 23 0 34 23 18 39 -13 13 -21 14
-30 4z"/>
<path d="M1901 391 c-16 -10 -6 -51 13 -51 22 0 36 22 25 42 -11 20 -18 22
-38 9z"/>
<path d="M266 2199 c-8 -30 -18 -87 -22 -127 -4 -45 -12 -76 -20 -79 -10 -3
-11 -49 -7 -216 3 -117 10 -213 14 -215 5 -2 10 -135 11 -295 2 -190 4 -87 8
293 5 533 7 589 24 633 10 26 16 51 13 54 -3 3 -13 -19 -21 -48z"/>
<path d="M2496 559 c-4 -28 -5 -53 -3 -56 3 -2 8 19 12 47 4 28 5 53 2 56 -2
3 -7 -19 -11 -47z"/>
</g>
</svg>
